<svg xmlns="http://www.w3.org/2000/svg" xmlns:xlink="http://www.w3.org/1999/xlink" viewBox="0 0 1718.7514 1633.4811"><defs><style>.e55386cf-3112-43c3-acc3-cb0fc4b6d68b{fill:none;}.e065957e-3661-4427-b49e-aa061b23b627{clip-path:url(#f74b9e69-c6ad-4d8d-8831-6f6a6ec87f54);}</style><clipPath id="f74b9e69-c6ad-4d8d-8831-6f6a6ec87f54" transform="translate(130.5085 562.1417)"><circle class="e55386cf-3112-43c3-acc3-cb0fc4b6d68b" cx="465.6244" cy="465.6244" r="465.5"/></clipPath></defs><g id="bce88d80-dcb8-4a95-bbae-58356c84e3c1" data-name="Layer 2"><g id="b280bb89-a652-4d40-ab15-4d28e3fb5f41" data-name="Layer 27"><path d="M1022.1488,280.5019q0,15.45,1.0563,18.6188t6.0738,3.1688h6.2063q2.9032,0,2.905,1.46,0,1.5774-2.3763,1.578h-.5287l-4.6213-.3963-5.4138-.3962h-10.0363l-5.5462.3962-4.6213.3963h-.3963q-2.511,0-2.5087-1.4584,0-1.5791,2.905-1.5791h6.3376q5.0169,0,6.0749-3.1688,1.0551-3.1687,1.0563-18.6188V251.4506q-.2655-6.8652-1.9812-7.9226a6.7428,6.7428,0,0,0-3.4326-.6611q-.793,0-4.3575.2649l-3.5662.2638h-.3963q-2.6429,0-2.64-1.7163,0-1.7145,2.2438-1.7175h.3962l3.9625.3963h6.3376a20.9284,20.9284,0,0,0,2.3774-.1981,21.2056,21.2056,0,0,1,2.3763-.1982q2.112,0,2.1137,3.0375Zm-3.0375-60.2151a4.4844,4.4844,0,0,1,3.3669,1.4525,4.8057,4.8057,0,0,1,1.3869,3.4337,4.5813,4.5813,0,0,1-1.3869,3.3669,4.4323,4.4323,0,0,1-3.2356,1.3869,4.737,4.737,0,0,1-3.4982-1.3869,4.5816,4.5816,0,0,1-1.3868-3.3669,4.7418,4.7418,0,0,1,1.3868-3.4994A4.58,4.58,0,0,1,1019.1113,220.2868Z" transform="translate(130.5085 562.1417)"/><path d="M1134.5217,249.0743h-15.3176l-9.7713,54.14q-2.9067,15.9759-9.7724,22.8451a21.9189,21.9189,0,0,1-15.9776,6.8663,20.79,20.79,0,0,1-11.0925-2.8394q-4.62-2.84-4.6213-6.9319,0-4.2292,4.2251-4.2263,3.9618,0,3.9624,3.6975a8.48,8.48,0,0,1-.5287,2.245,4.1387,4.1387,0,0,0-.5287,1.4525q0,3.8283,8.4512,3.83,17.4319,0,22.5813-29.3162l9.1113-51.7627h-9.1113q-3.4361,0-3.4337-1.585,0-1.5843,3.17-1.585h9.9038l2.3763-13.205q1.4524-8.1857,4.0937-12.4125,4.2238-6.735,13.9975-6.735a23.0883,23.0883,0,0,1,12.6764,3.3681q5.2806,3.3675,5.2824,8.1206,0,5.02-4.0937,5.0176-3.8318,0-3.83-3.8288a4.36,4.36,0,0,1,1.7175-3.0375,3.8606,3.8606,0,0,0,.7925-1.32q0-1.9818-4.3587-3.9612a18.37,18.37,0,0,0-7.79-1.585q-6.4713,0-9.7057,3.565-3.2373,3.5662-4.6881,12.2813l-2.3774,13.7325H1135.05a8.45,8.45,0,0,1,3.1031.3306,1.0677,1.0677,0,0,1,.5944.9906Q1138.7479,249.0755,1134.5217,249.0743Z" transform="translate(130.5085 562.1417)"/><path d="M1217.7108,297.8534V292.782a25.92,25.92,0,0,1-5.4138,7.395q-7.1305,6.4711-17.9588,6.4712-12.9424,0-19.015-7.2637a20.63,20.63,0,0,1-4.3575-9.6389,77.0605,77.0605,0,0,1-.5288-10.8287V259.6381q0-11.8855-.7983-14.3938t-4.6612-2.5087a39.7076,39.7076,0,0,0-4.26.2637q-3.4606.3957-3.86.3963-2.5323,0-2.53-1.8488,0-1.5843,1.9812-1.585h.3963l3.6975.3963h7.6587l1.32-.1313,2.1125-.265q2.3775,0,2.3775,4.8863v34.4651a55.3187,55.3187,0,0,0,.66,10.1675,16.5131,16.5131,0,0,0,4.3575,8.8475q5.4144,5.68,15.5825,5.6787,13.4682,0,19.1475-9.3762,4.09-6.7332,4.0926-20.0713V259.6381q0-13.3364-1.0059-15.1206-1.0094-1.7814-4.3622-1.7819a41.3424,41.3424,0,0,0-4.43.2637l-3.8932.3963q-2.55,0-2.55-1.7163,0-1.7145,2.1125-1.7175h.3962l3.5651.3963h6.6025a13.1044,13.1044,0,0,0,2.7737-.1981,7.0926,7.0926,0,0,1,1.7163-.1982q2.5075,0,2.5087,5.2825v40.2751q0,13.34.925,15.1195.9214,1.7831,4.3575,1.7831.3957,0,4.2251-.1325a22.5526,22.5526,0,0,1,4.0937-.5276q2.5076,0,2.5088,1.7163,0,1.7181-2.3763,1.7175h-.265l-3.8288-.265-3.0375-.1313h-1.5849a3.97,3.97,0,0,0-1.32.3963h-3.83a2.7984,2.7984,0,0,1-2.64-1.1348,10.0277,10.0277,0,0,1-.6612-4.4713Z" transform="translate(130.5085 562.1417)"/><path d="M1289.81,273.5149a2.8493,2.8493,0,0,1,2.245.66l.7925.9249a2.26,2.26,0,0,0,1.0563.3963q1.8482,0,1.8487-3.6975,0-6.735-6.0081-11.422a23.01,23.01,0,0,0-14.5919-4.6881q-12.8088,0-20.4676,8.7151t-7.6587,23.3725q0,14.1312,7.3281,22.3832,7.3294,8.2543,19.8744,8.2531,11.8839,0,17.9588-7.6588,4.2238-5.4143,4.49-10.5649.1284-3.2989,1.8476-3.3013,1.8482,0,1.8487,2.51,0,7.9219-6.8663,14.7888-6.8668,6.8687-18.8825,6.8675-14.133,0-22.7126-9.1781-8.5866-9.1758-8.5837-24.1,0-15.45,8.715-25.0888t22.7126-9.64q10.3011,0,17.2987,5.6119,6.9971,5.6148,6.9988,13.7994a10.5672,10.5672,0,0,1-2.3107,6.9987,7.1878,7.1878,0,0,1-5.7443,2.7726q-5.1507,0-5.15-4.7538Q1285.8485,273.5161,1289.81,273.5149Z" transform="translate(130.5085 562.1417)"/><path d="M1323.3522,276.2757l33.2763-29.5789a2.9241,2.9241,0,0,0,1.1888-2.1125q0-1.5845-2.5088-1.585H1353.46q-1.5845,0-2.9051.1325-2.643.2655-3.4337.2638-2.7731,0-2.7725-1.7163,0-1.7145,2.6412-1.7175.3957,0,4.0926.3963a103.9293,103.9293,0,0,0,11.0925.5287,96.1682,96.1682,0,0,0,10.8287-.66,37.0891,37.0891,0,0,1,3.9613-.265q2.64,0,2.6412,1.585,0,1.7181-2.7737,1.7163h-.3962l-2.7726-.2638h-2.6412q-5.68,0-12.1488,5.81l-14.9213,13.47q-1.5843,1.4543-1.5849,2.2438a5.124,5.124,0,0,0,1.0562,1.8488l21.9213,31.0325a9.8264,9.8264,0,0,0,8.5825,4.7538q.13,0,3.4337-.2638l3.1688-.2649q2.7732,0,2.7737,1.7174t-3.3012,1.7163q-1.3224,0-4.7538-.3963-1.456-.2637-5.4149-.5287l-4.2251-.1313q-.3955,0-5.4138.3963l-5.0187.3962-4.225.2638h-.5287q-2.7732,0-2.7726-1.4525t2.7726-1.4525h6.0749q5.6765,0,5.6776-2.245a6.402,6.402,0,0,0-1.32-2.905l-4.2263-6.3388-15.45-21.6563q-1.187-1.7145-2.2438-1.7162a3.758,3.758,0,0,0-1.9812,1.1887l-13.6013,12.28v6.8662q0,7.66.5287,9.64,1.4508,4.8869,6.9988,4.8863h6.2062q2.9016,0,2.9051,1.395,0,1.5088-2.5088,1.51h-.3963l-4.6224-.34-5.4138-.2251-4.0937-.2274h-2.6413l-3.6975.2274-5.5451.2251-4.6224.34h-.3963q-2.5094,0-2.5087-1.3951,0-1.51,2.905-1.51h6.2062q5.1507,0,6.2063-3.1032t1.0563-18.5531V234.4168q0-13.3363-.9895-15.1206-.9918-1.7832-4.4243-1.782a39.7757,39.7757,0,0,0-4.3575.2638q-4.7532.5293-3.9613.5275-2.643,0-2.6412-1.8487,0-1.5845,2.2309-1.5838h14.69a2.5344,2.5344,0,0,1,2.7538,1.98,33.8651,33.8651,0,0,1,.1325,4.0938v55.3289Z" transform="translate(130.5085 562.1417)"/><path d="M1405.0923,280.5019q0,15.45,1.0563,18.6188t6.0738,3.1688h6.2062q2.9033,0,2.9051,1.46,0,1.5774-2.3763,1.578h-.5288l-4.6213-.3963-5.4137-.3962h-10.0363l-5.5462.3962-4.6213.3963h-.3963q-2.511,0-2.5087-1.4584,0-1.5791,2.905-1.5791h6.3376q5.0169,0,6.0749-3.1688,1.0551-3.1687,1.0563-18.6188V251.4506q-.2655-6.8652-1.9812-7.9226a6.7428,6.7428,0,0,0-3.4326-.6611q-.793,0-4.3575.2649l-3.5662.2638h-.3963q-2.643,0-2.64-1.7163,0-1.7145,2.2438-1.7175h.3962l3.9625.3963h6.3376a20.9284,20.9284,0,0,0,2.3774-.1981,21.2056,21.2056,0,0,1,2.3763-.1982q2.112,0,2.1137,3.0375Zm-3.0375-60.2151a4.4845,4.4845,0,0,1,3.3669,1.4525,4.8057,4.8057,0,0,1,1.3869,3.4337,4.5813,4.5813,0,0,1-1.3869,3.3669,4.4324,4.4324,0,0,1-3.2356,1.3869,4.737,4.737,0,0,1-3.4982-1.3869,4.5816,4.5816,0,0,1-1.3868-3.3669,4.7418,4.7418,0,0,1,1.3868-3.4994A4.58,4.58,0,0,1,1402.0548,220.2868Z" transform="translate(130.5085 562.1417)"/><path d="M1445.8938,245.3768v7.13q4.62-8.3194,11.7525-11.3563a32.5862,32.5862,0,0,1,12.5438-2.5088q9.5082,0,15.5825,4.1594a18.1313,18.1313,0,0,1,7.6588,11.6869q1.0551,5.1487,1.0563,16.2425v9.7713q0,15.45,1.0562,18.6188t6.075,3.1688h6.3376q2.9033,0,2.905,1.46,0,1.5774-2.5088,1.578h-.3962l-4.6213-.3963-5.5463-.3962h-10.0362l-5.4138.3962-4.6213.3963h-.5287q-2.3757,0-2.3763-1.4584,0-1.5791,2.905-1.5791h6.2063q5.1506,0,6.1406-3.1032.99-3.1.99-18.6844v-9.9038q0-16.7688-3.6964-21.92-5.2842-7.3944-17.695-7.395-15.188,0-21.26,12.0163-2.5111,4.8869-2.5088,15.7138v11.4888q0,15.45,1.0562,18.6188t6.0738,3.1688h6.2063q2.9033,0,2.905,1.46,0,1.5774-2.3763,1.578h-.5287l-4.6213-.3963-5.4138-.3962h-10.0362l-5.5463.3962-4.6212.3963h-.3963q-2.5112,0-2.5088-1.4584,0-1.5791,2.9051-1.5791h6.2062q5.1489,0,6.2063-3.1688,1.0551-3.1687,1.0563-18.6188V251.4506q-.2657-6.8652-1.9813-7.9226a6.7421,6.7421,0,0,0-3.4325-.6611q-.7931,0-4.3575.2649l-3.9625.2638q-2.643,0-2.64-1.7163,0-1.7145,2.3763-1.7175.9232,0,4.0938.265c1.0562.0879,2.0668.1313,3.0375.1313h2.5087a24.46,24.46,0,0,0,2.5088-.1981,24.7438,24.7438,0,0,1,2.5088-.1982q1.8481,0,2.3106.925A12.9054,12.9054,0,0,1,1445.8938,245.3768Z" transform="translate(130.5085 562.1417)"/><path d="M1550.6091,281.2944q-12.1512,0-19.5438-7.395h-.7925a7.2125,7.2125,0,0,0-5.15,1.8651,6.4455,6.4455,0,0,0-1.98,4.925q0,9.3181,17.6939,9.5837h9.3762q15.9757.2673,23.5051,3.3012,11.6182,4.755,11.62,15.9788,0,9.77-8.8475,14.9213t-25.6176,5.15q-16.5086,0-25.6175-5.0844-9.1125-5.0836-9.1113-14.4594,0-12.2794,16.3738-17.9588-13.0725-1.98-13.0726-11.62,0-7.5263,9.5076-9.9038a22.0737,22.0737,0,0,1-2.245-9.5075,21.0544,21.0544,0,0,1,6.8006-16.11q6.8-6.3393,17.232-6.3387,7.3944,0,15.45,4.49a16.4494,16.4494,0,0,1-.5276-3.5662,9.5713,9.5713,0,0,1,3.4994-7.5263,12.9117,12.9117,0,0,1,8.7807-3.0375,10.9239,10.9239,0,0,1,7.395,2.5088,8.0236,8.0236,0,0,1,2.905,6.3387,6.7462,6.7462,0,0,1-1.6506,4.5557,5.1242,5.1242,0,0,1-4.0269,1.9155q-4.0956,0-4.0938-3.9624,0-3.6946,3.3013-3.6975a11.2952,11.2952,0,0,1,1.1887.2649c-.1782,0,.0422.0446.66.1313.6143,0,.9238-.3505.9238-1.0562a3.3448,3.3448,0,0,0-1.9144-2.7726,8.4686,8.4686,0,0,0-4.5556-1.1887,9.3862,9.3862,0,0,0-6.735,2.3775,8.3161,8.3161,0,0,0-2.5088,6.3375,9.3544,9.3544,0,0,0,1.0563,4.2262l2.6412,5.2814a21.8463,21.8463,0,0,1,2.245,9.9037q0,9.5082-6.6681,15.3188Q1561.436,281.2962,1550.6091,281.2944Zm.66,45.6889q14.3913,0,22.3819-4.49,7.9888-4.49,7.9894-12.6763,0-16.9008-32.22-16.9026-14.1312,0-21.8544,4.49-7.725,4.4912-7.7244,12.8088,0,8.0522,8.1206,12.4125Q1536.0828,326.9833,1551.2691,326.9833Zm-.5287-48.33q9.2426,0,14.79-5.0175t5.5462-13.47q0-8.5813-5.4806-13.7325t-14.5907-5.15q-9.2444,0-14.9225,5.3482t-5.6775,14.0631q0,8.1893,5.5462,13.0726Q1541.4978,278.6538,1550.74,278.6531Z" transform="translate(130.5085 562.1417)"/><path d="M1055.1769,341.1368h10.6962a2.3223,2.3223,0,0,1,2.3775,1.184,8.3467,8.3467,0,0,1,.2638,2.7655v61.4812q0,15.2708,1.0562,18.4981,1.0551,3.225,6.2063,3.2239h6.2063q2.7731,0,2.7737,1.46,0,1.5774-2.3775,1.578h-.3962l-4.6213-.3963-5.4138-.3962h-10.3l-5.4138.3962-4.6225.3963h-.5275q-2.3775,0-2.3775-1.4584,0-1.5791,2.905-1.5791h6.2063q5.1506,0,6.2063-3.1583,1.0551-3.1564,1.0562-18.5613v-45.941q0-11.9769-.7913-14.348-.793-2.37-4.6224-2.37-1.98,0-4.3576.1582-3.5644.2393-3.9612.2368-2.643,0-2.6413-1.5838,0-1.5843,2.245-1.5849h4.2251Z" transform="translate(130.5085 562.1417)"/><path d="M1121.4646,364.6418q13.8657,0,22.5156,9.5075,8.6465,9.5082,8.6482,24.8251,0,14.9242-8.6482,24.2975-8.6517,9.378-22.5156,9.3763-13.4682,0-22.0514-9.7725-8.5866-9.77-8.5837-25.0889,0-14.6586,8.5837-23.9012Q1107.9947,364.6429,1121.4646,364.6418Zm0,65.3651q12.1476,0,19.8076-8.5169,7.6581-8.5181,7.66-22.1193,0-14.2614-7.5931-23.1745a24.7124,24.7124,0,0,0-19.7419-8.9132q-12.1512,0-19.6094,8.517-7.4613,8.518-7.4607,22.2506,0,14.3949,7.395,23.1745Q1109.3146,430.0087,1121.4646,430.0069Z" transform="translate(130.5085 562.1417)"/><path d="M1159.6284,368.9993l-2.3775.3963h-2.245q-3.299,0-3.3013-1.7163,0-1.7145,2.5088-1.7175h3.83a66.069,66.069,0,0,0,9.64.6612q2.5058,0,4.6213-.1324l6.2062-.3963,4.3576-.1325q2.5075,0,2.5087,1.585,0,1.8517-2.64,1.8488h-.3963q-2.9067,0-5.15-.1982-2.2473-.1986-3.0375-.1981-5.02,0-5.0175,2.905,0,1.4543,1.98,6.3388l19.4113,47.5376c.44.7058.7034,1.0563.7925,1.0563q.5258,0,1.7163-2.905l20.2038-49.65a7.1941,7.1941,0,0,0,.5287-2.245q0-3.0369-5.2825-3.0375-1.3206,0-4.0937.1981c-1.8476.1325-3.2145.1982-4.0926.1982q-2.3775,0-2.3775-1.585,0-1.8464,2.7738-1.8488,2.5058,0,7.4606.3306,4.952.3306,7.4607.3306,4.092,0,9.375-.3962a20.9177,20.9177,0,0,1,3.4337-.265q2.2439,0,2.245,1.3928,0,1.6476-3.565,1.6447h-2.6412q-3.4361,0-5.0844,1.6507-1.653,1.6529-4.0269,7.5931l-20.865,50.7076q-1.3206,3.2988-3.0363,3.3012-1.8518,0-3.5662-4.11l-21.1276-51.3184q-2.2473-5.3053-3.4337-6.63A4.4,4.4,0,0,0,1159.6284,368.9993Z" transform="translate(130.5085 562.1417)"/><path d="M1288.375,393.5606q0,2.7732-1.2543,3.3013a10.6637,10.6637,0,0,1-3.8945.5287H1236.48q-1.8518,0-2.3107.5275a4.66,4.66,0,0,0-.4618,2.6413q0,13.2061,7.1957,21.3257,7.1957,8.1223,18.8181,8.1218,12.5431,0,19.675-8.8475a21.3566,21.3566,0,0,0,3.9613-7.5275,30.9554,30.9554,0,0,1,.66-3.3012q.5276-2.2439,1.9812-2.2438,1.5844,0,1.585,1.8487a17.3377,17.3377,0,0,1-1.4525,5.9413,25.4517,25.4517,0,0,1-10.1019,12.3469,29.429,29.429,0,0,1-16.1768,4.4244q-13.4682,0-21.6563-9.1125-8.1893-9.1107-8.1864-24.0326,0-15.45,8.517-25.1556t21.9857-9.7057a26.3936,26.3936,0,0,1,19.8075,8.3856A28.5244,28.5244,0,0,1,1288.375,393.5606Zm-54.14-1.1887q0,1.9818,2.905,1.9812h45.4251q2.2438,0,2.245-2.1125a26.2633,26.2633,0,0,0-5.81-16.11q-6.735-8.8452-18.7513-8.8476a24.7408,24.7408,0,0,0-15.6481,5.0832q-6.5364,5.0856-9.3094,14.3281A20.0831,20.0831,0,0,0,1234.2349,392.3719Z" transform="translate(130.5085 562.1417)"/><path d="M1047.5942,493.4037v4.4454q9.3641-11.8575,24.9693-11.86a31.5229,31.5229,0,0,1,15.9178,4.2919q7.4912,4.2942,10.1441,10.6892,2.184,5.3089,2.1852,13.89V544.511q0,6.7122.1559,7.9589.7791,5.3071,4.2133,5.3059a22.4545,22.4545,0,0,0,3.6682-.39,22.1542,22.1542,0,0,1,3.1993-.3892,4.9389,4.9389,0,0,1,3.5111,1.4045,4.5522,4.5522,0,0,1,1.4818,3.4325,4.8722,4.8722,0,0,1-1.8722,3.9015,6.8461,6.8461,0,0,1-4.5251,1.56,66.1622,66.1622,0,0,1-7.1793-.6237,75.9857,75.9857,0,0,0-9.3634-.6237,59.36,59.36,0,0,0-6.71.3119q-7.806.9354-8.2719.9355-6.2427,0-6.2426-5.4619,0-4.8341,5.4114-4.837a15.0608,15.0608,0,0,1,2.8628.3119,26.55,26.55,0,0,0,3.8182.6236q3.8195,0,4.1383-8.5825V520.01q0-8.27-.7784-11.3926a15.056,15.056,0,0,0-6.0609-9.2074,19.861,19.861,0,0,0-11.6587-3.5885q-12.4395,0-17.8779,8.8944-3.7315,6.0861-3.7315,20.7559v20.756q0,6.87.9367,9.3633a3.4308,3.4308,0,0,0,3.4325,2.4971,15.06,15.06,0,0,0,3.4338-.5463,15.52,15.52,0,0,1,3.59-.5452q4.8358,0,4.8382,5.2274,0,5.0733-6.2426,5.0715-1.2521,0-8.1149-.9355a56.9651,56.9651,0,0,0-7.647-.469,81.2379,81.2379,0,0,0-8.74.6249q-6.8685.779-7.8029.78-6.5539,0-6.5545-5.306,0-4.9923,5.0867-4.9929a16.8154,16.8154,0,0,1,2.94.4678,19.7231,19.7231,0,0,0,4.211.4677q4.7707,0,4.9284-9.0515V507.2124q-.3183-5.3036-1.3505-7.2566a3.7115,3.7115,0,0,0-3.5779-1.9508,20.0629,20.0629,0,0,0-3.2567.39,19.7235,19.7235,0,0,1-3.2579.39q-5.7257,0-5.7233-4.9941,0-5.1505,7.0222-5.15a6.6874,6.6874,0,0,1,1.5616.1559l5.7736.6248a21.6223,21.6223,0,0,0,4.3693-.39q4.0567-.3886,4.2145-.39Q1047.5937,488.6417,1047.5942,493.4037Z" transform="translate(130.5085 562.1417)"/><path d="M1156.211,521.4139v20.2882q0,7.806.1559,9.2074.7789,7.0217,4.2133,7.0222a23.2755,23.2755,0,0,0,3.9015-.78,6.662,6.662,0,0,1,2.3411-.313q5.93,0,5.9308,5.15a4.6576,4.6576,0,0,1-1.9578,3.7456,7.6723,7.6723,0,0,1-4.9331,1.56,61.0287,61.0287,0,0,1-7.5931-.7022,61.3515,61.3515,0,0,0-7.5967-.7023,74.3063,74.3063,0,0,0-9.0831.6249,80.9357,80.9357,0,0,1-8.1418.78q-6.2655,0-6.2637-5.306,0-5.1488,5.354-5.15a21.5093,21.5093,0,0,1,3.7.469,21.4442,21.4442,0,0,0,3.701.4677q3.7789,0,4.5673-9.9882v-39.95q-.7894-9.8318-4.7232-9.8323a16.45,16.45,0,0,0-3.5451.5463,16.1215,16.1215,0,0,1-3.3845.5463q-5.6694,0-5.6694-4.9941,0-5.3036,6.8663-5.3059a39.4515,39.4515,0,0,1,4.2133.1559q4.9941.6261,6.3986.6249a28.2732,28.2732,0,0,0,3.8241-.39,28.406,28.406,0,0,1,3.8229-.39q4.5246,0,4.5263,6.0867,0,.6243-.1242,1.8722-.1249,1.252-.1255,1.8734-.1266,1.25-.2508,9.6751Q1156.21,514.706,1156.211,521.4139Zm-8.1148-40.887a8.7942,8.7942,0,0,1-8.74-8.74,8.1594,8.1594,0,0,1,2.5756-6.0867,8.8567,8.8567,0,0,1,12.3281,0,8.1634,8.1634,0,0,1,2.5756,6.0867,8.7942,8.7942,0,0,1-8.74,8.74Z" transform="translate(130.5085 562.1417)"/><path d="M1234.0339,546.8754q-1.6285-6.0228,5.6588-8.966a12.17,12.17,0,0,0-7.2879-6.9214q-5.1073-1.8506-11.8869-.0186a20.7464,20.7464,0,0,0-14.4826,12.8069q-4.0857,9.9979-.38,23.7062,3.8295,14.1624,11.96,20.6112,8.1279,6.4531,18.6747,3.6a19.0179,19.0179,0,0,0,10.5067-6.8826,19.6272,19.6272,0,0,0,3.8934-12.2072q.0783-5.6791.1778-6.5149a5.4236,5.4236,0,0,1,4.0064-4.3161,5.8751,5.8751,0,0,1,7.4641,4.2858,23.3576,23.3576,0,0,1,.0339,9.6916,32.5275,32.5275,0,0,1-3.3628,10.2847q-6.3231,11.8964-20.4825,15.7237-15.3658,4.155-27.7145-4.1462-12.3506-8.2989-17.1144-25.926-5.05-18.6777,1.63-32.532,6.6825-13.8478,22.8015-18.2089,12.0507-3.2585,21.8085,1.1357a21.3552,21.3552,0,0,1,12.485,14.487,14.1488,14.1488,0,0,1-.6033,10.0255,10.2912,10.2912,0,0,1-6.93,5.7541,9.2619,9.2619,0,0,1-6.8636-.5693A7.495,7.495,0,0,1,1234.0339,546.8754Z" transform="translate(130.5085 562.1417)"/><path d="M1272.8113,527.1888l26.6867-24.9705a3.6932,3.6932,0,0,0,1.4044-2.8088q0-1.558-2.0293-1.56a23.9688,23.9688,0,0,0-4.5251.6248,23.8938,23.8938,0,0,1-4.5264.6237q-5.4636,0-5.4618-4.9941,0-5.46,6.8675-5.4618a38.9574,38.9574,0,0,1,4.3692.3118,153.6484,153.6484,0,0,0,16.3867,1.2485,38.0605,38.0605,0,0,0,5.3059-.3118l6.3986-.9367a26.4324,26.4324,0,0,1,3.5884-.3118q7.6442,0,7.6471,5.3868,0,5.07-5.3059,5.0691a21.9651,21.9651,0,0,1-3.5111-.39,22.4679,22.4679,0,0,0-3.5111-.39q-3.9039,0-8.116,3.9014l-16.3856,14.9823c-1.1465,1.041-1.7162,1.8722-1.7162,2.497a4.592,4.592,0,0,0,1.2473,2.3412l19.9764,25.9059q7.644,9.8317,10.9237,9.8311a13.8525,13.8525,0,0,0,2.5755-.39,14.43,14.43,0,0,1,2.8863-.3892q5.6184,0,5.6189,4.9929,0,5.3071-7.1793,5.306a81.7174,81.7174,0,0,1-8.3492-.6237,81.7422,81.7422,0,0,0-8.3493-.6237,60.6786,60.6786,0,0,0-7.2567.6237,60.4,60.4,0,0,1-7.1007.6237q-5.9315,0-5.93-5.306,0-4.9923,5.6177-4.9929a15.9883,15.9883,0,0,1,2.4971.1559,18.4823,18.4823,0,0,0,3.59.78q1.405,0,1.4045-1.0926v-.4677a.4389.4389,0,0,1-.1559-.3119l-1.56-2.1852-2.0293-2.9648-15.6059-20.7559q-1.5617-2.0258-2.4971-2.0293-.626,0-2.3411,1.5615l-11.5485,10.2989v3.59q0,7.4912.157,8.4278.7791,5.4636,4.3693,5.4619a12.8983,12.8983,0,0,0,2.653-.2345,14.8062,14.8062,0,0,1,2.9648-.2333q5.3035,0,5.3059,5.15,0,5.1489-5.93,5.1489a68.25,68.25,0,0,1-8.0375-.7022,68.8126,68.8126,0,0,0-8.1933-.7023,63.6349,63.6349,0,0,0-8.2707.6249,76.1657,76.1657,0,0,1-7.9589.78q-6.0861,0-6.0867-5.1489,0-5.1506,5.9307-5.15a17,17,0,0,1,2.9649.3119,22.46,22.46,0,0,0,3.4337.4677q3.7438,0,4.2133-5.93l.4678-6.0867V482.7109q-.3149-8.4267-1.102-10.6892a3.1809,3.1809,0,0,0-3.31-2.2638,26.2564,26.2564,0,0,0-2.9918.313,13.1041,13.1041,0,0,1-4.4079.78q-5.2015,0-5.1992-4.837,0-5.3036,6.1183-5.3059a41.7569,41.7569,0,0,1,4.3939.1559q3.9214.4679,5.1793.4678a31.1211,31.1211,0,0,0,3.6846-.3119,31.43,31.43,0,0,1,3.5334-.3118h1.0973q5.0169,0,5.02,6.3833Z" transform="translate(130.5085 562.1417)"/><path d="M1406.0221,521.1044q0,5.9314-.78,7.2567-.7842,1.3277-4.5263,1.3259H1351.09a4.3523,4.3523,0,0,0-2.653.5463,2.2745,2.2745,0,0,0-.6248,1.7948q0,11.7045,7.0234,19.5075a23.2621,23.2621,0,0,0,30.0407,4.0574,17.1341,17.1341,0,0,0,7.4138-9.5193l1.4044-4.5263a4.8416,4.8416,0,0,1,5.15-3.7444q5.7714,0,5.7737,5.93,0,10.1464-10.3,18.0244a37.5145,37.5145,0,0,1-23.4089,7.8815q-16.3855,0-26.0619-11.0022-9.6788-11.0028-9.6752-29.573,0-19.0391,10.3-30.9,10.2994-11.8575,26.8415-11.86,14.6674,0,24.19,9.8323Q1406.02,505.9668,1406.0221,521.1044Zm-56.6489-4.0574q0,2.1858,3.4326,2.1841h37.2986q3.2778,0,3.2766-2.1841A19.4084,19.4084,0,0,0,1387.14,502.69a20.3311,20.3311,0,0,0-14.67-6.0867,23.5255,23.5255,0,0,0-15.9178,6.32Q1349.3715,509.2429,1349.3732,517.047Z" transform="translate(130.5085 562.1417)"/><path d="M1461.8962,508.9322V557.389q.1565,7.9466,4.2543,7.946a20.2994,20.2994,0,0,0,3.94-.78,19.72,19.72,0,0,1,2.5216-.3131q5.2017,0,5.2016,5.3071,0,5.1489-6.3762,5.1489a78.5545,78.5545,0,0,1-7.9331-.6237,79.4513,79.4513,0,0,0-8.3974-.6237,65.9923,65.9923,0,0,0-7.4641.6237,65.8539,65.8539,0,0,1-7.3083.6237h-.7772q-6.5328,0-6.5334-5.6178,0-4.8359,5.3552-4.8382h1.102a6.8982,6.8982,0,0,0,1.42.22,39.2,39.2,0,0,0,4.5674.8723,3.2756,3.2756,0,0,0,3.5428-2.4256q.7086-2.4285.8651-12.61l.1583-10.9635V487.1833a47.8821,47.8821,0,0,0-.4678-6.2637q-1.0937-3.6-4.3692-3.6014-.4695,0-4.0574.6237a16.2306,16.2306,0,0,1-2.81.3118q-5.307,0-5.3059-4.994,0-5.1489,6.2426-5.1489a24.51,24.51,0,0,1,2.9648.1559l3.7456.4678a25.779,25.779,0,0,0,8.8956-.1559,34.6543,34.6543,0,0,1,4.6822-.4678q3.5874,0,3.5885,4.5181a12.9359,12.9359,0,0,1-.1559,2.3353Q1461.8938,486.9659,1461.8962,508.9322Z" transform="translate(130.5085 562.1417)"/><path d="M1092.6358,622.9126q-1.3891,12.9-1.56,30.614,5.0082-6.5538,10.171-9.2074,5.1646-2.6517,12.9894-2.6529,15.647,0,24.879,10.9237,9.2321,10.9254,9.2343,29.0278,0,19.82-9.7537,31.6011-9.7542,11.7853-26.2951,11.783-16.0761,0-23.253-12.0163.6207,4.528.6236,4.9941,0,5.6184-5.4618,5.6178-5.4654,0-5.4619-7.803V704.8708l.78-12.0175v-57.43q-.1564-5.7712-1.17-7.8029a3.6062,3.6062,0,0,0-3.5111-2.0281q-.47,0-4.0574.6236a16.7713,16.7713,0,0,1-2.966.3119q-5.3035,0-5.3059-4.9941,0-5.1489,6.2426-5.1489a26.0591,26.0591,0,0,1,3.1207.156l3.7456.4677a33.7233,33.7233,0,0,0,4.0574.3119,35.035,35.035,0,0,0,4.8381-.4678,34.6721,34.6721,0,0,1,4.6823-.4678q3.4308,0,3.4325,4.3517Zm-.4607,45.1274a69.0025,69.0025,0,0,0-1.1,14.0456q0,15.45,2.5146,21.2237,4.8709,11.3949,18.5438,11.3926a20.3721,20.3721,0,0,0,17.2085-8.5052q6.3639-8.5041,6.3669-22.8626,0-14.6676-6.0527-23.0185a19.3772,19.3772,0,0,0-16.579-8.3493A21.3345,21.3345,0,0,0,1099.72,656.57,19.7724,19.7724,0,0,0,1092.1751,668.04Z" transform="translate(130.5085 562.1417)"/><path d="M1249.96,722.8167q-12.7983,0-15.7619-11.0808-7.9588,11.7045-24.9692,11.7045-12.6417,0-20.21-6.2426-7.572-6.2391-7.5685-16.6986,0-12.9511,11.08-19.0385a29.04,29.04,0,0,1,7.2567-3.0433q3.0439-.7017,12.2508-1.7949,13.1094-1.4049,17.0889-3.9014t3.9788-9.2075a12.3422,12.3422,0,0,0-4.4477-10.0655q-4.4472-3.6646-12.4067-3.6682a23.8615,23.8615,0,0,0-13.1089,3.9015q-2.3406,1.5633-2.3411,3.2778,0,.6259,1.4056,1.56,2.1822,1.5615,2.184,5.3059a6.6142,6.6142,0,0,1-2.2626,5.15,8.2129,8.2129,0,0,1-5.6963,2.0293,9.0824,9.0824,0,0,1-6.7889-2.8089,9.4781,9.4781,0,0,1-2.73-6.8675q0-8.7378,8.6611-14.9811,8.6605-6.2408,20.99-6.2426,28.4011,0,28.4018,27.2518v31.4581a65.9873,65.9873,0,0,0,.313,8.8756q.9356,5.4513,5.306,5.45,5.46,0,5.4618-9.9191v-7.5931q0-4.9606,4.762-4.96,5.07,0,5.07,7.4912v9.6751Q1265.5644,722.8167,1249.96,722.8167Zm-17.3222-31.056V680.68a19.967,19.967,0,0,1-7.2274,4.37q-3.8124,1.25-13.5989,2.184-17.722,1.72-17.7208,13.1089a11.337,11.337,0,0,0,4.2919,9.3633q4.2906,3.4361,11.627,3.4338,10.4524,0,16.4641-5.6964Q1232.4792,701.75,1232.638,691.7607Z" transform="translate(130.5085 562.1417)"/><path d="M1324.09,669.2873q0-6.2391,7.803-7.1781a12.17,12.17,0,0,0-5.2286-8.5837q-4.4472-3.12-11.47-3.1208a20.7467,20.7467,0,0,0-17.3234,8.5826q-6.5538,8.5849-6.5544,22.7852,0,14.671,6.1652,23.0186,6.1617,8.3509,17.0878,8.3493a19.0182,19.0182,0,0,0,11.9389-3.9015,19.6273,19.6273,0,0,0,6.9448-10.7678q1.5581-5.4618,1.8722-6.2426a5.4236,5.4236,0,0,1,4.9941-3.1207,5.875,5.875,0,0,1,6.0867,6.0855,23.36,23.36,0,0,1-2.497,9.3645,32.53,32.53,0,0,1-5.9308,9.05q-9.2091,9.8334-23.8767,9.8323-15.9177,0-25.6715-11.2367-9.756-11.235-9.7537-29.4945,0-19.3485,10.0656-30.9786,10.0654-11.6235,26.7641-11.6259,12.4834,0,20.7559,6.7889a21.3553,21.3553,0,0,1,8.2707,17.2437,14.1487,14.1487,0,0,1-3.1992,9.52,10.2912,10.2912,0,0,1-8.1922,3.7456,9.2622,9.2622,0,0,1-6.4771-2.3411A7.4949,7.4949,0,0,1,1324.09,669.2873Z" transform="translate(130.5085 562.1417)"/><path d="M1376.3693,687.08l26.6867-24.97A3.6936,3.6936,0,0,0,1404.46,659.3q0-1.558-2.0292-1.56a23.97,23.97,0,0,0-4.5252.6248,23.894,23.894,0,0,1-4.5263.6237q-5.4636,0-5.4619-4.9941,0-5.46,6.8675-5.4619a38.961,38.961,0,0,1,4.3692.3119,153.65,153.65,0,0,0,16.3867,1.2485,38.0631,38.0631,0,0,0,5.306-.3118l6.3985-.9367a26.4349,26.4349,0,0,1,3.5885-.3119q7.644,0,7.647,5.3869,0,5.07-5.3059,5.0691a21.9781,21.9781,0,0,1-3.5111-.39,22.4692,22.4692,0,0,0-3.5111-.39q-3.9039,0-8.116,3.9015l-16.3855,14.9823c-1.1466,1.041-1.7163,1.8722-1.7163,2.497a4.5915,4.5915,0,0,0,1.2473,2.3411l19.9764,25.906q7.6442,9.8316,10.9237,9.8311a13.862,13.862,0,0,0,2.5756-.39,14.4291,14.4291,0,0,1,2.8862-.3892q5.6184,0,5.619,4.9929,0,5.3071-7.1793,5.3059a81.7124,81.7124,0,0,1-8.3493-.6236,81.7422,81.7422,0,0,0-8.3493-.6237,60.6773,60.6773,0,0,0-7.2566.6237,60.3982,60.3982,0,0,1-7.1008.6236q-5.9313,0-5.93-5.3059,0-4.9923,5.6178-4.9929a15.9754,15.9754,0,0,1,2.497.1559,18.4827,18.4827,0,0,0,3.59.78q1.4049,0,1.4044-1.0926v-.4678a.4387.4387,0,0,1-.1559-.3118l-1.56-2.1852-2.0293-2.9648-15.6059-20.756q-1.5615-2.0258-2.4971-2.0292-.626,0-2.3411,1.5615l-11.5485,10.2988v3.59q0,7.4911.1571,8.4278.7789,5.4636,4.3692,5.4619a12.8983,12.8983,0,0,0,2.653-.2345,14.8069,14.8069,0,0,1,2.9648-.2333q5.3035,0,5.3059,5.15,0,5.1489-5.93,5.1488a68.2471,68.2471,0,0,1-8.0374-.7022,68.8323,68.8323,0,0,0-8.1934-.7022,63.6331,63.6331,0,0,0-8.2707.6248,76.1344,76.1344,0,0,1-7.9589.78q-6.0861,0-6.0867-5.1488,0-5.1506,5.9308-5.15a16.9982,16.9982,0,0,1,2.9648.3118,22.4525,22.4525,0,0,0,3.4337.4678q3.7438,0,4.2133-5.93l.4678-6.0867V642.6018q-.3149-8.4267-1.102-10.6893a3.1809,3.1809,0,0,0-3.31-2.2637,26.2554,26.2554,0,0,0-2.9917.313,13.1051,13.1051,0,0,1-4.408.78q-5.2015,0-5.1992-4.837,0-5.3035,6.1183-5.3059a41.7273,41.7273,0,0,1,4.3939.1559q3.9214.4677,5.1793.4677a31.1163,31.1163,0,0,0,3.6846-.3118,31.4316,31.4316,0,0,1,3.5334-.3118h1.0973q5.0169,0,5.02,6.3833Z" transform="translate(130.5085 562.1417)"/><path d="M1509.2474,529.4q0-5.46,6.2426-5.4619h24.3456q6.2391,0,6.2426,5.306,0,5.6182-6.2426,5.6177H1515.49Q1509.2474,534.8616,1509.2474,529.4Z" transform="translate(130.5085 562.1417)"/><g class="e065957e-3661-4427-b49e-aa061b23b627"><path d="M232.6842,426.0686c9.4781,13.6222,24.991,23.096,42.5588,25.9909,32.3375,5.3283,63.3872-12.5515,71.7744-40.39q.7158-2.3759,1.2071-4.8453a51.903,51.903,0,0,0-8.6591-40.012c-9.478-13.6222-24.99-23.0947-42.5585-25.99-34.1769-5.6315-66.9165,14.6556-72.9807,45.2346A51.9012,51.9012,0,0,0,232.6842,426.0686Zm1.1519-38.0933c.265-1.3368.5941-2.6533.9821-3.94,6.5471-21.7308,30.0987-36.0965,55.6384-33.9956a43.8687,43.8687,0,0,0-26.4326,64.15,44.4333,44.4333,0,0,0,53.9511,19.8022,58.2767,58.2767,0,0,1-41.0888,8.2489c-14.917-2.4584-28.0318-10.4208-35.98-21.8442A42.0792,42.0792,0,0,1,233.8361,387.9753Z" transform="translate(130.5085 562.1417)"/><path d="M461.3351,366.7033a7.2322,7.2322,0,0,1,3.5317-5.6079c3.8019-2.14,8.8237-.2193,11.4328,4.374,2.4126,4.2488,1.793,9.0813-1.323,11.4772a6.8635,6.8635,0,0,1-.8056.5331c-3.8019,2.14-8.824.22-11.4326-4.3733l0-.0006A10.6465,10.6465,0,0,1,461.3351,366.7033Z" transform="translate(130.5085 562.1417)"/><path d="M473.6261,360.3328c-2.6081-4.5933-1.6623-9.867,2.129-12.01,3.8018-2.14,8.8236-.2193,11.4328,4.374a10.6445,10.6445,0,0,1,1.4027,6.4025,7.3874,7.3874,0,0,1-2.7475,5.0888,6.6352,6.6352,0,0,1-.7834.5185c-3.8017,2.1416-8.8235.2206-11.4326-4.3724Z" transform="translate(130.5085 562.1417)"/><path class="e55386cf-3112-43c3-acc3-cb0fc4b6d68b" d="M157.7937,356.9277a36.9356,36.9356,0,0,1,6.1734,3.4325l1.05-3.0907c8.9886,1.8224,18.049.5774,27.0055-3.7052l10.65-6.155c1.3452-.8508,2.6686-1.6847,3.9952-2.4906a57.9533,57.9533,0,0,1,10.09-5.0747c8.8008-3.2489,19.8161-3.6937,31.0193-1.2516l14.4571,3.1519-12.95-8.9881a44.3126,44.3126,0,0,0-17.8667-7.0253l.0991-.0776q1.3-1.0342,2.5055-2.1491l.0494-.0484q3.8921.2037,7.7856.407c18.9472-3.3073,38.5456-6.4067,59.67-1.9261.7662.1621,1.5221.3157,2.2708.4675,4.1743.8464,7.6162,1.5487,10.6985,3.3673a16.4675,16.4675,0,0,1,1.8218,1.24l6.0985,4.7932.0645-5.85a19.2723,19.2723,0,0,0-.954-6.0237c-3.359-10.6106-15.0634-20.981-26.4995-25.9275-.3761-.1627-.7506-.3019-1.1259-.4555q22.0915,2.05,49.6969,2.5934c14.2364.2777,27.8862.2038,39.8343-.0207,14.8535,9.3671,31.2967,16.5381,49.52,19.431,3.656.5808,7.4106,1.0023,11.042,1.41,11.549,1.297,22.4576,2.52,30.5281,8.4562,7.2588,5.3393,11.5815,14.3727,15.3961,22.3434,5.1843,10.8327,10.5447,22.034,10.7324,33.9582.3968,25.1149-14.9125,47.2271-24.0208,56.3321-7.3458,7.3445-44.9619,20.6228-66.9394,27.261l-.9061.2743-.7437.5841c-.6558.5151-66.2789,51.8889-101.1159,59.9955-1.258.292-2.5575.5708-3.8863.8277l.0059.0027c-.25-.0944-.499-.1926-.75-.2852l-.2047.4611-.1731.0318.1244.079c-15.6272-10.1193-31.9722-18.31-46.8931-25.1728-7.8411-3.6067-15.8952-7.1524-23.6848-10.5812-12.1239-5.3355-24.4034-10.7484-36.4081-16.6223q-1.8795-2.196-3.7569-4.3579c-5.5343-6.3771-11.2561-12.9713-15.774-20.0142a87.0672,87.0672,0,0,1-13.1228-55.3123c.6778-.1194,1.3553-.2377,2.0306-.3715l-.055-4.0952a32.8777,32.8777,0,0,1-4.52.7308l-.97-4.8832c-.899.1774-1.8074.3378-2.72.49-.2582.043-.5178.0829-.7767.1236q-1.0676.1682-2.1477.3127c-.2336.0313-.4662.0643-.701.094q-1.4141.1788-2.8481.32c-.0771.0071-.1552.0125-.2327.02q-1.3317.1257-2.6829.2153c-.2278.0157-.4562.03-.685.0437q-1.2771.0774-2.5691.1265c-.1355.0049-.27.012-.4055.0165q-1.5477.0508-3.1178.06c-.0715,0-.1439-.0006-.216-.0006q-1.4362.0046-2.8932-.0289-.2733-.0052-.5472-.0128c-1.0278-.0269-2.0608-.0639-3.1023-.1181-.0051,0-.01,0-.015,0-18.98-5.8215-32.9817-18.725-48.63-37.4781l-6.3271-7.5834,9.8928-.567C106.285,341.5979,136.87,347.8756,157.7937,356.9277Z" transform="translate(130.5085 562.1417)"/><path d="M-21.55,345.1364c2.112.3438-138.6868,412.0288-103.2289,422.1336,13.2723,3.7814,563.4434,304.0694,563.4434,304.0694,21.6722-36.0832-119.8465-303.4735-122.8335-339.17-.1168-1.4046-.2838-2.8093-.4764-4.2142,5.0669,13.3273,11.0895,26.3623,19.4281,38.2242,4.36,6.2014,27.0546,9.1944,27.0546,9.1944-6.1031-2.4827-11.4217-7.283-17.2452-15.5673-12.906-18.36-19.8239-39.4154-27.1483-61.7079-5.041-15.344-10.2539-31.2083-17.59-45.9882-16.0227-32.2731-42.8865-59.8439-75.644-77.6323l-.3906.5915c-3.7622-3.3144-7.5946-6.5053-11.4577-9.5879C267.94,554.8266,332.32,540.4333,317.68,533.2936c.0191.0088.0388.018.0576.0274,8.9777-3.1578,19.6431-8.2927,31.8983-15.3386a266.7566,266.7566,0,0,0,92.9195,59.3088c7.4332,2.8025,15.1857,5.37,22.6814,7.8539,23.9593,7.9369,48.7,16.1333,65.5508,32.959a3.3118,3.3118,0,0,0,4.564.1l2.4958-2.268a3.295,3.295,0,0,0,.1255-4.7648c-18.4926-18.5493-44.4412-27.1454-69.57-35.47-7.4009-2.4523-15.054-4.988-22.2967-7.7179a256.9816,256.9816,0,0,1-87.5831-55.2745q8.3181-5.0838,17.4886-11.206c18.6273-12.4406,33.9755-24.2253,37.4736-26.94,8.7093-2.6566,53.96-16.7832,68.1531-27.6964a21.4443,21.4443,0,0,0,2.0758-1.7963c2.815-2.8152,27.4892-28.5082,26.9357-63.5176-.221-14.091-6.3205-26.8355-11.7012-38.08-4.1039-8.5741-9.2114-19.2458-18.4772-26.0608-10.226-7.5208-22.9956-8.9544-35.3457-10.34-3.5192-.3949-7.1579-.804-10.5882-1.3485A112.6834,112.6834,0,0,1,402.847,295.597c13.7576-.4851,22.4781-1.0371,22.6592-1.0486l5.8338-.3768,22.7725,1.7866L426.31,276.3335s-2.4226-1.711-6.69-4.7c-5.7353-4.6327-14.6207-11.7622-25.4216-20.2731a285.0754,285.0754,0,0,0,27.3571-20.2565c11.1584-1.3356,364.9171,108.1358,375.6934,105.3666C755.6864,297.9571,563.9958-600.0168,562.1852-560.9,561.3958-543.8441-45.8433,341.1951-21.55,345.1364ZM379.3631,237.5943c.1392.8154,7.1468-6.5213,9.9026-5.9372a148.3325,148.3325,0,0,0,23.9261.2359A98.8674,98.8674,0,0,1,379.3631,237.5943ZM78.2705,343.2025l9.8928-.567c18.1217-1.0376,48.7064,5.24,69.63,14.2922a36.9356,36.9356,0,0,1,6.1734,3.4325l1.05-3.0907c8.9886,1.8224,18.049.5774,27.0055-3.7052l10.65-6.155c1.3452-.8508,2.6686-1.6847,3.9952-2.4906a57.9533,57.9533,0,0,1,10.09-5.0747c8.8008-3.2489,19.8161-3.6937,31.0193-1.2516l14.4571,3.1519-12.95-8.9881a44.3126,44.3126,0,0,0-17.8667-7.0253l.0991-.0776q1.3-1.0342,2.5055-2.1491l.0494-.0484.0778.0041a69.055,69.055,0,0,0,14.806-.8068c16.7454-2.7511,34.0735-4.64,52.5721-.7164.7662.1621,1.5221.3157,2.2708.4675,4.1743.8464,7.6162,1.5487,10.6985,3.3673a16.4675,16.4675,0,0,1,1.8218,1.24l6.0985,4.7932.0645-5.85a19.2723,19.2723,0,0,0-.954-6.0237c-3.359-10.6106-15.0634-20.981-26.4995-25.9275-.3761-.1627-.7506-.3019-1.1259-.4555q22.0915,2.05,49.6969,2.5934c14.2364.2777,27.8862.2038,39.8343-.0207,14.8535,9.3671,31.2967,16.5381,49.52,19.431,3.656.5808,7.4106,1.0023,11.042,1.41,11.549,1.297,22.4576,2.52,30.5281,8.4562,7.2588,5.3393,11.5815,14.3727,15.3961,22.3434,5.1843,10.8327,10.5447,22.034,10.7324,33.9582.3968,25.1149-14.9125,47.2271-24.0208,56.3321-7.3458,7.3445-44.9619,20.6228-66.9394,27.261l-.9061.2743-.7437.5841c-.6558.5151-66.2789,51.8889-101.1159,59.9955-1.258.292-2.5575.5708-3.8863.8277l.0059.0027c-.25-.0944-.499-.1926-.75-.2852l-.2047.4611-.1731.0318.1244.079c-15.6272-10.1193-31.9722-18.31-46.8931-25.1728-7.8411-3.6067-15.8952-7.1524-23.6848-10.5812-12.1239-5.3355-24.4034-10.7484-36.4081-16.6223q-1.8795-2.196-3.7569-4.3579c-5.5343-6.3771-11.2561-12.9713-15.774-20.0142a87.0672,87.0672,0,0,1-13.1228-55.3123c.6778-.1194,1.3553-.2377,2.0306-.3715l-.055-4.0952a32.8777,32.8777,0,0,1-4.52.7308l-.97-4.8832c-.899.1774-1.8074.3378-2.72.49-.3031.05-.6083.0967-.9119.1449-.719.1143-1.44.2132-2.1617.3116-.1836.025-.367.05-.5518.0738q-1.4141.1788-2.8481.32c-.0771.0071-.1552.0125-.2327.02q-1.3317.1257-2.6829.2153c-.2278.0157-.4562.03-.685.0437q-1.2771.0774-2.5691.1265c-.1355.0049-.27.012-.4055.0165q-1.5477.0508-3.1178.06c-.0715,0-.1439-.0006-.216-.0006q-1.4362.0046-2.8932-.0289-.2733-.0052-.5472-.0128c-1.0278-.0269-2.0608-.0639-3.1023-.1181-.0051,0-.01,0-.015,0-18.98-5.8215-32.9817-18.725-48.63-37.4781Z" transform="translate(130.5085 562.1417)"/><path d="M776.5454,418.4786c-7.7138-31.3616-40.4328-52.2685-72.9354-46.6165-16.7078,2.9058-31.0336,12.56-39.3039,26.4881A54.3219,54.3219,0,0,0,658.45,439.328q.6234,2.5323,1.4589,4.97c9.7776,28.561,40.724,46.9947,71.4773,41.647,16.7073-2.9054,31.0338-12.5608,39.3041-26.489A54.3212,54.3212,0,0,0,776.5454,418.4786Zm-14.1081,35.1356c-6.935,11.68-19.05,19.7947-33.2359,22.262A55.2235,55.2235,0,0,1,689.2,467.2781a39.3531,39.3531,0,0,0,50.6355-20.1064,46.9368,46.9368,0,0,0,2.0185-34.3228,48.1547,48.1547,0,0,0-21.5162-27.2844,43.4178,43.4178,0,0,0-9.8632-4.2328c24.4185-2.0638,47.9413,12.742,55.5737,35.0369.4523,1.32.85,2.6708,1.1869,4.0418A44.0277,44.0277,0,0,1,762.4373,453.6142Z" transform="translate(130.5085 562.1417)"/><path d="M547.2579,397.8121a8.0959,8.0959,0,0,0-3.74-5.76c-3.7862-2.2065-8.4945-.2556-10.7192,4.4429-2.057,4.3461-1.1636,9.3011,1.9791,11.7675a7.1861,7.1861,0,0,0,.8073.5493c3.7862,2.2066,8.4948.2558,10.719-4.4422l0-.0006A11.1532,11.1532,0,0,0,547.2579,397.8121Z" transform="translate(130.5085 562.1417)"/><path d="M535.0514,391.24c2.2237-4.6985.99-10.1068-2.7867-12.3169-3.7861-2.2068-8.4945-.2557-10.7192,4.4429a11.1514,11.1514,0,0,0-.9536,6.5571,8.3307,8.3307,0,0,0,2.9545,5.225,6.9365,6.9365,0,0,0,.785.5342c3.7861,2.2082,8.4945.257,10.7191-4.4412Z" transform="translate(130.5085 562.1417)"/><path class="e55386cf-3112-43c3-acc3-cb0fc4b6d68b" d="M838.4105,388.8561a32.1007,32.1007,0,0,0-5.7221,3.4963l-1.2-3.1713c-8.5272,1.8362-17.3127.5286-26.1854-3.892l-10.6158-6.3456c-1.3454-.8767-2.6688-1.736-3.9935-2.5665a58.8949,58.8949,0,0,0-10.011-5.2365c-8.6594-3.3606-19.2744-3.855-29.892-1.3914l-13.7014,3.18,11.8931-9.1666a38.4132,38.4132,0,0,1,16.74-7.1376l-.1-.08q-1.3134-1.0647-2.5408-2.2114l-.05-.05q-3.7284.1951-7.4582.39c-18.4154-3.456-37.4439-6.7011-57.4721-2.1829-.7265.1634-1.4436.3182-2.1538.4711-3.96.8528-7.225,1.5606-10.0756,3.4137a14.4291,14.4291,0,0,0-1.6746,1.2645l-5.5662,4.8912-.4226-5.9958a20.4942,20.4942,0,0,1,.5456-6.17c2.5745-10.863,13.1851-21.4506,23.8722-26.48.3515-.1653.7029-.3067,1.0542-.4629q-21.1074,2.0243-47.6074,2.484c-13.6665.2348-26.7908.1112-38.2888-.1607-13.6994,9.5483-29.062,16.84-46.4,19.7414-3.4782.5825-7.061,1.0013-10.5264,1.406-11.0206,1.2889-21.43,2.5042-28.8214,8.56-6.6478,5.4468-10.2458,14.69-13.4209,22.8458-4.3152,11.0842-8.777,22.5457-8.2222,34.766,1.1668,25.7389,17.2447,48.4552,26.5607,57.8189,7.5133,7.5531,44.4874,21.2937,66.0207,28.1742l.8878.2842.7509.6013c.6621.53,66.9041,53.413,100.8881,61.8434,1.2272.3036,2.4934.5939,3.7865.8619l-.0056.0027c.2345-.0958.4678-.1956.7033-.29l.2252.4732.1684.0333-.1147.08c14.3966-10.3165,29.602-18.6536,43.5205-25.6353,7.3142-3.6691,14.8371-7.2749,22.1128-10.7618,11.3242-5.4259,22.7933-10.9306,33.97-16.9086q1.671-2.2442,3.3424-4.4533c4.9262-6.5165,10.0193-13.2549,13.9276-20.4573,8.98-16.5555,12.24-36.658,9.2035-56.6435-.6588-.1247-1.3173-.2483-1.9746-.3879l-.2-4.1969a30.7643,30.7643,0,0,0,4.39.7648l.6316-5.0014c.875.185,1.758.3526,2.6451.5113.2507.045.5028.0868.7541.1294q1.0365.1761,2.0835.328c.2266.0329.4522.0676.68.0988q1.37.1882,2.7573.338c.0745.0075.15.0134.2249.0211q1.2877.1335,2.592.23c.22.017.44.032.6611.0472q1.2323.0838,2.4771.1386c.1306.0056.26.0133.3908.0184q1.4907.0575,3,.0721c.0687.0006.1383,0,.2076,0q1.3808.01,2.7791-.0194.2623-.0045.5252-.0112c.9862-.024,1.9768-.0583,2.9745-.11a.1373.1373,0,0,0,.0143,0c17.884-5.9,30.5468-19.0757,44.4309-38.2409l5.614-7.75-9.5436-.6157C886.9742,373.325,857.9641,379.6519,838.4105,388.8561Z" transform="translate(130.5085 562.1417)"/><path d="M1081.2639,103.7839c-23.1,6.0465-1203.5639,219.2667-535.9613,148.45,10.529,2.8757-162.1739,69.8795-151.3665,71.2874,7.9064,6.58,161.3091-38.1765,201.525-43.6268a3.3141,3.3141,0,0,1,2.6219,5.7691c-6.8324,6.0627-12.4966,11.1554-16.5,14.776-.0619.0561-.1263.11-.1922.161-3.8538,2.9993-6.0385,4.7142-6.0385,4.7142l-25.5135,20.0159L571.617,323.58l5.6306.4067c.1747.0123,8.5907.6087,21.844,1.154a97.7083,97.7083,0,0,1-29.8357,10.2676c-3.2637.5461-6.7358.9527-10.094,1.345-11.7851,1.3769-23.9706,2.8014-33.3359,10.4738-8.4859,6.9521-12.7371,17.8717-16.1532,26.6449-4.4785,11.506-9.5555,24.5465-8.8993,38.9876,1.6261,35.879,26.9262,62.2982,29.8055,65.1934a23.1617,23.1617,0,0,0,2.1058,1.8483C547,491.1354,591.3641,505.7722,599.899,508.5254c3.53,2.7942,19.0083,14.9261,37.6793,27.7417q9.1938,6.3109,17.5,11.5462a224.8007,224.8007,0,0,1-80.7749,56.344c-6.7932,2.7725-13.9928,5.3446-20.9551,7.832-24.6729,8.8125-50.1853,17.9251-66.8164,38.6512l7.5157,6.9075c15.0636-18.7729,39.3948-27.4644,62.9255-35.8689,7.0515-2.5195,14.3447-5.1238,21.3165-7.97a233.5018,233.5018,0,0,0,85.6554-60.46c12.2137,7.2643,22.7816,12.5644,31.6053,15.8322.0175-.01.0359-.0189.0537-.0278-13.631,7.2662,49.1366,22.2433,103.2141,33.3588-3.5231,3.1459-7.01,6.4027-10.4218,9.7865l-.4118-.6076a165.1009,165.1009,0,0,0-67.9212,79.3c-6.14,15.1222-10.1727,31.3632-14.0721,47.0717-5.6658,22.8218-11.017,44.3776-22.29,63.1492-5.0867,8.47-9.9029,13.3713-15.6159,15.8945,0,0,21.6292-2.988,25.4373-9.3285,7.2836-12.1281,12.2687-25.4666,16.3173-39.1079-.0985,1.4392-.1724,2.8783-.1981,4.3174-.6705,36.5743-27.4132,124.5465-4.3582,161.6039l.2132.3435,10.1411,16.3424,4.2818-11.2153c.2474-.6469.4882-1.319.7328-1.975C729.95,913.05,737.5832,881.468,741.66,850.9014c2.2357-16.7545,59.5007-79.1562,72.0246-82.9853,33.4582-10.2321,194.37-390.1719,196.379-390.5168C1033.1707,373.4449,1097.018,99.66,1081.2639,103.7839ZM908.3858,382.8177c-13.8841,19.1652-26.5469,32.3409-44.4309,38.2409a.1373.1373,0,0,1-.0143,0c-.9977.052-1.9883.0863-2.9745.11q-.2628.0064-.5252.0112-1.397.0278-2.7791.0194c-.0693,0-.1389,0-.2076,0q-1.51-.0132-3-.0721c-.1307-.0051-.26-.0128-.3908-.0184q-1.2459-.0537-2.4771-.1386c-.2208-.0152-.4412-.03-.6611-.0472q-1.3035-.0979-2.592-.23c-.075-.0077-.15-.0136-.2249-.0211q-1.388-.1473-2.7573-.338c-.179-.0245-.3568-.0513-.5349-.0776-.6991-.1033-1.3979-.207-2.0944-.3264-.2956-.0507-.5926-.0992-.8879-.1522-.8871-.1587-1.77-.3263-2.6451-.5113l-.6316,5.0014a30.7643,30.7643,0,0,1-4.39-.7648l.2,4.1969c.6573.14,1.3158.2632,1.9746.3879,3.0361,19.9855-.2235,40.088-9.2035,56.6435-3.9083,7.2024-9.0014,13.9408-13.9276,20.4573q-1.6677,2.2069-3.3424,4.4533c-11.1765,5.978-22.6456,11.4827-33.97,16.9086-7.2757,3.4869-14.7986,7.0927-22.1128,10.7618-13.9185,6.9817-29.1239,15.3188-43.5205,25.6353l.1147-.08-.1684-.0333-.2252-.4732c-.2355.094-.4688.1938-.7033.29l.0056-.0027c-1.2931-.268-2.5593-.5583-3.7865-.8619-33.984-8.43-100.226-61.3132-100.8881-61.8434l-.7509-.6013-.8878-.2842c-21.5333-6.8805-58.5074-20.6211-66.0207-28.1742-9.316-9.3637-25.3939-32.08-26.5607-57.8189-.5548-12.22,3.907-23.6818,8.2222-34.766,3.1751-8.1558,6.7731-17.399,13.4209-22.8458,7.3912-6.0557,17.8008-7.271,28.8214-8.56,3.4654-.4047,7.0482-.8235,10.5264-1.406,17.3376-2.9011,32.7-10.1931,46.4-19.7414,11.498.2719,24.6223.3955,38.2888.1607q26.4911-.4551,47.6074-2.484c-.3513.1562-.7027.2976-1.0542.4629-10.6871,5.03-21.2977,15.6173-23.8722,26.48a20.4942,20.4942,0,0,0-.5456,6.17l.4226,5.9958,5.5662-4.8912a14.4291,14.4291,0,0,1,1.6746-1.2645c2.8506-1.8531,6.1155-2.5609,10.0756-3.4137.71-.1529,1.4273-.3077,2.1538-.4711,20.0282-4.5182,39.0567-1.2731,57.4721,2.1829q3.729-.1941,7.4582-.39h0a27.0282,27.0282,0,0,0,2.124,1.8879l.5671.4531a38.4132,38.4132,0,0,0-16.74,7.1376l-11.8931,9.1666,13.7014-3.18c10.6176-2.4636,21.2326-1.9692,29.892,1.3914a58.8949,58.8949,0,0,1,10.011,5.2365c1.3247.83,2.6481,1.69,3.9935,2.5665l10.6158,6.3456c8.8727,4.4206,17.6582,5.7282,26.1854,3.892l1.2,3.1713a32.1007,32.1007,0,0,1,5.7221-3.4963c19.5536-9.2042,48.5637-15.5311,66.0457-14.4042l9.5436.6157Z" transform="translate(130.5085 562.1417)"/></g></g></g></svg>